<svg width="860" height="1200" viewBox="0 0 860 1200" fill="none" xmlns="http://www.w3.org/2000/svg">
  <defs>
    <linearGradient id="silhouette" x1="215" y1="104" x2="621" y2="1018" gradientUnits="userSpaceOnUse">
      <stop stop-color="#6A2910"/>
      <stop offset="0.52" stop-color="#1A0D09"/>
      <stop offset="1" stop-color="#31140A"/>
    </linearGradient>
    <linearGradient id="edge" x1="328" y1="188" x2="654" y2="883" gradientUnits="userSpaceOnUse">
      <stop stop-color="#8F3B17" stop-opacity="0.65"/>
      <stop offset="1" stop-color="#140806" stop-opacity="0.12"/>
    </linearGradient>
    <radialGradient id="coreGlow" cx="0" cy="0" r="1" gradientUnits="userSpaceOnUse" gradientTransform="translate(470 430) rotate(90) scale(360 250)">
      <stop stop-color="#FFBF59" stop-opacity="0.38"/>
      <stop offset="1" stop-color="#FFBF59" stop-opacity="0"/>
    </radialGradient>
    <filter id="softGlow" x="150" y="135" width="540" height="910" filterUnits="userSpaceOnUse" color-interpolation-filters="sRGB">
      <feGaussianBlur stdDeviation="10"/>
    </filter>
  </defs>

  <ellipse cx="430" cy="625" rx="210" ry="310" fill="url(#coreGlow)"/>

  <path
    d="M320 96C409 61 515 104 580 183C647 264 669 365 641 467C627 519 603 565 570 603C630 650 670 723 680 807C691 897 651 980 575 1029C500 1078 393 1078 314 1036C286 1021 261 1000 240 975C219 1028 182 1071 129 1104C172 1027 187 944 172 854C115 774 89 675 98 565C109 425 160 312 251 208C287 167 303 131 320 96Z"
    fill="url(#silhouette)"
  />

  <path
    d="M362 156C441 135 525 165 578 225C631 285 651 365 633 445C618 511 586 568 534 610C544 646 580 667 625 674C574 706 523 710 477 691C436 745 370 778 295 793C330 729 335 657 310 575C281 480 281 390 313 304C328 264 345 213 362 156Z"
    fill="url(#edge)"
  />

  <path
    d="M497 182C582 235 635 344 628 449C623 529 582 594 513 646C545 716 603 757 674 773C620 805 554 810 484 790C439 867 362 925 270 949C325 873 343 781 321 692C302 614 291 535 295 456C300 350 344 257 425 194C449 175 470 168 497 182Z"
    fill="#120907"
    fill-opacity="0.78"
  />

  <g filter="url(#softGlow)" stroke-linecap="round" stroke-linejoin="round">
    <path d="M316 286C377 218 494 220 566 291" stroke="#FFD56C" stroke-width="18"/>
    <path d="M336 334C389 280 474 285 532 331" stroke="#FFB94B" stroke-width="16"/>
    <path d="M360 381C404 343 462 347 508 383" stroke="#FFD56C" stroke-width="14"/>
    <path d="M403 295C414 379 416 468 413 565" stroke="#FFC14D" stroke-width="12"/>
    <path d="M444 309C456 400 458 532 449 700" stroke="#FFB338" stroke-width="12"/>
    <path d="M487 340C496 430 497 539 490 642" stroke="#FFD67A" stroke-width="10"/>
    <path d="M425 626C435 719 437 810 430 902" stroke="#FFB338" stroke-width="10"/>
    <path d="M467 631C475 719 476 805 470 882" stroke="#FFD67A" stroke-width="8"/>
  </g>

  <g stroke-linecap="round" stroke-linejoin="round">
    <path d="M316 286C377 218 494 220 566 291" stroke="#FFD56C" stroke-width="16"/>
    <path d="M336 334C389 280 474 285 532 331" stroke="#FFB94B" stroke-width="14"/>
    <path d="M360 381C404 343 462 347 508 383" stroke="#FFD56C" stroke-width="12"/>
    <path d="M403 295C414 379 416 468 413 565" stroke="#FFC14D" stroke-width="10"/>
    <path d="M444 309C456 400 458 532 449 700" stroke="#FFB338" stroke-width="10"/>
    <path d="M487 340C496 430 497 539 490 642" stroke="#FFD67A" stroke-width="8"/>
    <path d="M425 626C435 719 437 810 430 902" stroke="#FFB338" stroke-width="8"/>
    <path d="M467 631C475 719 476 805 470 882" stroke="#FFD67A" stroke-width="6"/>
  </g>
</svg>
